<?xml version="1.0" standalone="no"?>
<!DOCTYPE svg PUBLIC "-//W3C//DTD SVG 20010904//EN"
 "http://www.w3.org/TR/2001/REC-SVG-20010904/DTD/svg10.dtd">
<svg version="1.0" xmlns="http://www.w3.org/2000/svg"
 width="240.000000pt" height="240.000000pt" viewBox="0 0 240.000000 240.000000"
 preserveAspectRatio="xMidYMid meet">

<g transform="translate(0.000000,240.000000) scale(0.100000,-0.100000)"
fill="#000000" stroke="none">
<path d="M1267 1413 c-47 -144 -52 -170 -41 -184 8 -8 14 -23 14 -32 0 -12 41
-29 162 -68 90 -29 172 -53 183 -55 11 -1 100 -28 198 -59 98 -32 180 -55 183
-53 7 8 -52 247 -76 308 -29 74 -77 138 -125 165 -37 21 -406 145 -433 145 -6
0 -36 -75 -65 -167z"/>
<path d="M434 1423 c3 -10 18 -73 35 -140 38 -158 72 -231 130 -286 48 -45 39
-42 414 -160 59 -18 66 -23 61 -41 -3 -12 -26 -85 -51 -163 -24 -78 -41 -148
-37 -154 4 -8 3 -9 -4 -5 -7 4 -12 3 -12 -3 0 -5 -3 -16 -6 -24 -4 -12 25 -8
136 19 193 46 275 87 331 165 23 32 101 278 93 291 -3 4 -1 8 3 8 13 0 46 121
36 130 -6 6 -92 38 -123 45 -3 1 -12 4 -20 7 -83 31 -181 57 -209 55 -28 -2
-37 3 -47 22 -11 21 -44 35 -216 89 -112 35 -264 83 -338 107 -74 23 -146 46
-158 50 -20 6 -23 4 -18 -12z m844 -285 c-2 -8 7 -12 22 -11 14 1 19 -1 12 -4
-10 -4 -10 -8 -1 -19 17 -21 2 -17 -26 8 -13 11 -22 25 -19 30 8 12 14 10 12
-4z m227 -68 c25 -10 27 -31 2 -29 -7 0 -6 3 2 6 10 4 5 10 -15 19 -35 15 -26
18 11 4z m-33 -212 c-7 -7 -12 -8 -12 -2 0 14 12 26 19 19 2 -3 -1 -11 -7 -17z
m22 -12 c-3 -15 -8 -25 -11 -23 -2 3 -1 17 3 31 3 15 8 25 11 23 2 -3 1 -17
-3 -31z"/>
</g>
</svg>
